<svg width="1280" height="71" viewBox="0 0 1280 71" fill="none" xmlns="http://www.w3.org/2000/svg">
<path d="M99 52.9045V1.8131C99 0.811729 98.1882 -3.8147e-05 97.1869 -3.8147e-05H1.81313C0.811767 -3.8147e-05 0 0.811729 0 1.8131L0 68.7269C0 69.7283 0.811768 70.54 1.81314 70.54H97.1869C98.1882 70.54 99 69.7283 99 68.7269V52.9045ZM8.64072 12.9305C7.63935 12.9305 6.82759 12.1187 6.82759 11.1174V6.51591C6.82759 5.51455 7.63935 4.70278 8.64072 4.70278H13.5489C14.5503 4.70278 15.3621 5.51455 15.3621 6.51591V11.1174C15.3621 12.1187 14.5503 12.9305 13.5489 12.9305H8.64072ZM24.0028 12.9305C23.0014 12.9305 22.1897 12.1187 22.1897 11.1174V6.51591C22.1897 5.51455 23.0014 4.70278 24.0028 4.70278H28.911C29.9124 4.70278 30.7241 5.51455 30.7241 6.51591V11.1174C30.7241 12.1187 29.9124 12.9305 28.911 12.9305H24.0028ZM39.3649 12.9305C38.3635 12.9305 37.5517 12.1187 37.5517 11.1174V6.51591C37.5517 5.51455 38.3635 4.70278 39.3649 4.70278H44.2731C45.2744 4.70278 46.0862 5.51455 46.0862 6.51591V11.1174C46.0862 12.1187 45.2744 12.9305 44.2731 12.9305H39.3649ZM54.7269 12.9305C53.7256 12.9305 52.9138 12.1187 52.9138 11.1174V6.51591C52.9138 5.51455 53.7256 4.70278 54.7269 4.70278H59.6351C60.6365 4.70278 61.4483 5.51455 61.4483 6.51591V11.1174C61.4483 12.1187 60.6365 12.9305 59.6351 12.9305L54.7269 12.9305ZM70.089 12.9305C69.0876 12.9305 68.2759 12.1187 68.2759 11.1174V6.51591C68.2759 5.51455 69.0876 4.70278 70.089 4.70278H74.9972C75.9986 4.70278 76.8103 5.51455 76.8103 6.51591V11.1174C76.8103 12.1187 75.9986 12.9305 74.9972 12.9305H70.089ZM85.4511 12.9305C84.4497 12.9305 83.6379 12.1187 83.6379 11.1174V6.51591C83.6379 5.51455 84.4497 4.70278 85.4511 4.70278H90.3593C91.3606 4.70278 92.1724 5.51455 92.1724 6.51591V11.1174C92.1724 12.1187 91.3606 12.9305 90.3593 12.9305H85.4511ZM37.5517 52.9045H8.64072C7.63936 52.9045 6.82759 52.0927 6.82759 51.0913L6.82759 19.4487C6.82759 18.4473 7.63935 17.6355 8.64072 17.6355H44.2731C45.2744 17.6355 46.0862 18.4473 46.0862 19.4487V51.0913C46.0862 52.0927 45.2744 52.9045 44.2731 52.9045H37.5517ZM83.6379 52.9045H54.7269C53.7256 52.9045 52.9138 52.0927 52.9138 51.0913V19.4487C52.9138 18.4473 53.7256 17.6355 54.7269 17.6355L90.3593 17.6355C91.3606 17.6355 92.1724 18.4473 92.1724 19.4487V51.0913C92.1724 52.0927 91.3606 52.9045 90.3593 52.9045L83.6379 52.9045ZM8.64072 65.8372C7.63935 65.8372 6.82759 65.0255 6.82759 64.0241L6.82759 59.4204C6.82759 58.4191 7.63935 57.6073 8.64072 57.6073H13.5489C14.5503 57.6073 15.3621 58.4191 15.3621 59.4204V64.0241C15.3621 65.0255 14.5503 65.8372 13.5489 65.8372H8.64072ZM24.0028 65.8372C23.0014 65.8372 22.1897 65.0255 22.1897 64.0241V59.4204C22.1897 58.4191 23.0014 57.6073 24.0028 57.6073H28.911C29.9124 57.6073 30.7241 58.4191 30.7241 59.4204V64.0241C30.7241 65.0255 29.9124 65.8372 28.911 65.8372H24.0028ZM39.3649 65.8372C38.3635 65.8372 37.5517 65.0255 37.5517 64.0241V59.4204C37.5517 58.4191 38.3635 57.6073 39.3649 57.6073H44.2731C45.2744 57.6073 46.0862 58.4191 46.0862 59.4204V64.0241C46.0862 65.0255 45.2744 65.8372 44.2731 65.8372H39.3649ZM54.7269 65.8372C53.7256 65.8372 52.9138 65.0255 52.9138 64.0241V59.4204C52.9138 58.4191 53.7256 57.6073 54.7269 57.6073H59.6351C60.6365 57.6073 61.4483 58.4191 61.4483 59.4204V64.0241C61.4483 65.0255 60.6365 65.8372 59.6351 65.8372H54.7269ZM70.089 65.8372C69.0876 65.8372 68.2759 65.0255 68.2759 64.0241V59.4204C68.2759 58.4191 69.0876 57.6073 70.089 57.6073L74.9972 57.6073C75.9986 57.6073 76.8103 58.4191 76.8103 59.4204V64.0241C76.8103 65.0255 75.9986 65.8372 74.9972 65.8372H70.089ZM85.4511 65.8372C84.4497 65.8372 83.6379 65.0255 83.6379 64.0241V59.4204C83.6379 58.4191 84.4497 57.6073 85.4511 57.6073H90.3593C91.3606 57.6073 92.1724 58.4191 92.1724 59.4204V64.0241C92.1724 65.0255 91.3606 65.8372 90.3593 65.8372H85.4511Z" fill="white"/>
<path d="M198 52.9045V1.8131C198 0.811729 197.188 -3.8147e-05 196.187 -3.8147e-05H100.813C99.8118 -3.8147e-05 99 0.811729 99 1.8131V68.7269C99 69.7283 99.8118 70.54 100.813 70.54H196.187C197.188 70.54 198 69.7283 198 68.7269V52.9045ZM107.641 12.9305C106.639 12.9305 105.828 12.1187 105.828 11.1174V6.51591C105.828 5.51455 106.639 4.70278 107.641 4.70278H112.549C113.55 4.70278 114.362 5.51455 114.362 6.51591V11.1174C114.362 12.1187 113.55 12.9305 112.549 12.9305H107.641ZM123.003 12.9305C122.001 12.9305 121.19 12.1187 121.19 11.1174V6.51591C121.19 5.51455 122.001 4.70278 123.003 4.70278H127.911C128.912 4.70278 129.724 5.51455 129.724 6.51591V11.1174C129.724 12.1187 128.912 12.9305 127.911 12.9305H123.003ZM138.365 12.9305C137.363 12.9305 136.552 12.1187 136.552 11.1174V6.51591C136.552 5.51455 137.363 4.70278 138.365 4.70278H143.273C144.274 4.70278 145.086 5.51455 145.086 6.51591V11.1174C145.086 12.1187 144.274 12.9305 143.273 12.9305H138.365ZM153.727 12.9305C152.726 12.9305 151.914 12.1187 151.914 11.1174V6.51591C151.914 5.51455 152.726 4.70278 153.727 4.70278H158.635C159.637 4.70278 160.448 5.51455 160.448 6.51591V11.1174C160.448 12.1187 159.637 12.9305 158.635 12.9305L153.727 12.9305ZM169.089 12.9305C168.088 12.9305 167.276 12.1187 167.276 11.1174V6.51591C167.276 5.51455 168.088 4.70278 169.089 4.70278H173.997C174.999 4.70278 175.81 5.51455 175.81 6.51591V11.1174C175.81 12.1187 174.999 12.9305 173.997 12.9305H169.089ZM184.451 12.9305C183.45 12.9305 182.638 12.1187 182.638 11.1174V6.51591C182.638 5.51455 183.45 4.70278 184.451 4.70278H189.359C190.361 4.70278 191.172 5.51455 191.172 6.51591V11.1174C191.172 12.1187 190.361 12.9305 189.359 12.9305H184.451ZM136.552 52.9045H107.641C106.639 52.9045 105.828 52.0927 105.828 51.0913V19.4487C105.828 18.4473 106.639 17.6355 107.641 17.6355H143.273C144.274 17.6355 145.086 18.4473 145.086 19.4487V51.0913C145.086 52.0927 144.274 52.9045 143.273 52.9045H136.552ZM182.638 52.9045H153.727C152.726 52.9045 151.914 52.0927 151.914 51.0913V19.4487C151.914 18.4473 152.726 17.6355 153.727 17.6355L189.359 17.6355C190.361 17.6355 191.172 18.4473 191.172 19.4487V51.0913C191.172 52.0927 190.361 52.9045 189.359 52.9045L182.638 52.9045ZM107.641 65.8372C106.639 65.8372 105.828 65.0255 105.828 64.0241V59.4204C105.828 58.4191 106.639 57.6073 107.641 57.6073H112.549C113.55 57.6073 114.362 58.4191 114.362 59.4204V64.0241C114.362 65.0255 113.55 65.8372 112.549 65.8372H107.641ZM123.003 65.8372C122.001 65.8372 121.19 65.0255 121.19 64.0241V59.4204C121.19 58.4191 122.001 57.6073 123.003 57.6073H127.911C128.912 57.6073 129.724 58.4191 129.724 59.4204V64.0241C129.724 65.0255 128.912 65.8372 127.911 65.8372H123.003ZM138.365 65.8372C137.363 65.8372 136.552 65.0255 136.552 64.0241V59.4204C136.552 58.4191 137.363 57.6073 138.365 57.6073H143.273C144.274 57.6073 145.086 58.4191 145.086 59.4204V64.0241C145.086 65.0255 144.274 65.8372 143.273 65.8372H138.365ZM153.727 65.8372C152.726 65.8372 151.914 65.0255 151.914 64.0241V59.4204C151.914 58.4191 152.726 57.6073 153.727 57.6073H158.635C159.637 57.6073 160.448 58.4191 160.448 59.4204V64.0241C160.448 65.0255 159.637 65.8372 158.635 65.8372H153.727ZM169.089 65.8372C168.088 65.8372 167.276 65.0255 167.276 64.0241V59.4204C167.276 58.4191 168.088 57.6073 169.089 57.6073L173.997 57.6073C174.999 57.6073 175.81 58.4191 175.81 59.4204V64.0241C175.81 65.0255 174.999 65.8372 173.997 65.8372H169.089ZM184.451 65.8372C183.45 65.8372 182.638 65.0255 182.638 64.0241V59.4204C182.638 58.4191 183.45 57.6073 184.451 57.6073H189.359C190.361 57.6073 191.172 58.4191 191.172 59.4204V64.0241C191.172 65.0255 190.361 65.8372 189.359 65.8372H184.451Z" fill="white"/>
<path d="M297 52.9045V1.8131C297 0.811729 296.188 -3.8147e-05 295.187 -3.8147e-05H199.813C198.812 -3.8147e-05 198 0.811729 198 1.8131V68.7269C198 69.7283 198.812 70.54 199.813 70.54H295.187C296.188 70.54 297 69.7283 297 68.7269V52.9045ZM206.641 12.9305C205.639 12.9305 204.828 12.1187 204.828 11.1174V6.51591C204.828 5.51455 205.639 4.70278 206.641 4.70278H211.549C212.55 4.70278 213.362 5.51455 213.362 6.51591V11.1174C213.362 12.1187 212.55 12.9305 211.549 12.9305H206.641ZM222.003 12.9305C221.001 12.9305 220.19 12.1187 220.19 11.1174V6.51591C220.19 5.51455 221.001 4.70278 222.003 4.70278H226.911C227.912 4.70278 228.724 5.51455 228.724 6.51591V11.1174C228.724 12.1187 227.912 12.9305 226.911 12.9305H222.003ZM237.365 12.9305C236.363 12.9305 235.552 12.1187 235.552 11.1174V6.51591C235.552 5.51455 236.363 4.70278 237.365 4.70278H242.273C243.274 4.70278 244.086 5.51455 244.086 6.51591V11.1174C244.086 12.1187 243.274 12.9305 242.273 12.9305H237.365ZM252.727 12.9305C251.726 12.9305 250.914 12.1187 250.914 11.1174V6.51591C250.914 5.51455 251.726 4.70278 252.727 4.70278H257.635C258.637 4.70278 259.448 5.51455 259.448 6.51591V11.1174C259.448 12.1187 258.637 12.9305 257.635 12.9305L252.727 12.9305ZM268.089 12.9305C267.088 12.9305 266.276 12.1187 266.276 11.1174V6.51591C266.276 5.51455 267.088 4.70278 268.089 4.70278H272.997C273.999 4.70278 274.81 5.51455 274.81 6.51591V11.1174C274.81 12.1187 273.999 12.9305 272.997 12.9305H268.089ZM283.451 12.9305C282.45 12.9305 281.638 12.1187 281.638 11.1174V6.51591C281.638 5.51455 282.45 4.70278 283.451 4.70278H288.359C289.361 4.70278 290.172 5.51455 290.172 6.51591V11.1174C290.172 12.1187 289.361 12.9305 288.359 12.9305H283.451ZM235.552 52.9045H206.641C205.639 52.9045 204.828 52.0927 204.828 51.0913V19.4487C204.828 18.4473 205.639 17.6355 206.641 17.6355H242.273C243.274 17.6355 244.086 18.4473 244.086 19.4487V51.0913C244.086 52.0927 243.274 52.9045 242.273 52.9045H235.552ZM281.638 52.9045H252.727C251.726 52.9045 250.914 52.0927 250.914 51.0913V19.4487C250.914 18.4473 251.726 17.6355 252.727 17.6355L288.359 17.6355C289.361 17.6355 290.172 18.4473 290.172 19.4487V51.0913C290.172 52.0927 289.361 52.9045 288.359 52.9045L281.638 52.9045ZM206.641 65.8372C205.639 65.8372 204.828 65.0255 204.828 64.0241V59.4204C204.828 58.4191 205.639 57.6073 206.641 57.6073H211.549C212.55 57.6073 213.362 58.4191 213.362 59.4204V64.0241C213.362 65.0255 212.55 65.8372 211.549 65.8372H206.641ZM222.003 65.8372C221.001 65.8372 220.19 65.0255 220.19 64.0241V59.4204C220.19 58.4191 221.001 57.6073 222.003 57.6073H226.911C227.912 57.6073 228.724 58.4191 228.724 59.4204V64.0241C228.724 65.0255 227.912 65.8372 226.911 65.8372H222.003ZM237.365 65.8372C236.363 65.8372 235.552 65.0255 235.552 64.0241V59.4204C235.552 58.4191 236.363 57.6073 237.365 57.6073H242.273C243.274 57.6073 244.086 58.4191 244.086 59.4204V64.0241C244.086 65.0255 243.274 65.8372 242.273 65.8372H237.365ZM252.727 65.8372C251.726 65.8372 250.914 65.0255 250.914 64.0241V59.4204C250.914 58.4191 251.726 57.6073 252.727 57.6073H257.635C258.637 57.6073 259.448 58.4191 259.448 59.4204V64.0241C259.448 65.0255 258.637 65.8372 257.635 65.8372H252.727ZM268.089 65.8372C267.088 65.8372 266.276 65.0255 266.276 64.0241V59.4204C266.276 58.4191 267.088 57.6073 268.089 57.6073L272.997 57.6073C273.999 57.6073 274.81 58.4191 274.81 59.4204V64.0241C274.81 65.0255 273.999 65.8372 272.997 65.8372H268.089ZM283.451 65.8372C282.45 65.8372 281.638 65.0255 281.638 64.0241V59.4204C281.638 58.4191 282.45 57.6073 283.451 57.6073H288.359C289.361 57.6073 290.172 58.4191 290.172 59.4204V64.0241C290.172 65.0255 289.361 65.8372 288.359 65.8372H283.451Z" fill="white"/>
<path d="M396 52.9045V1.8131C396 0.811729 395.188 -3.8147e-05 394.187 -3.8147e-05H298.813C297.812 -3.8147e-05 297 0.811729 297 1.8131V68.7269C297 69.7283 297.812 70.54 298.813 70.54H394.187C395.188 70.54 396 69.7283 396 68.7269V52.9045ZM305.641 12.9305C304.639 12.9305 303.828 12.1187 303.828 11.1174V6.51591C303.828 5.51455 304.639 4.70278 305.641 4.70278H310.549C311.55 4.70278 312.362 5.51455 312.362 6.51591V11.1174C312.362 12.1187 311.55 12.9305 310.549 12.9305H305.641ZM321.003 12.9305C320.001 12.9305 319.19 12.1187 319.19 11.1174V6.51591C319.19 5.51455 320.001 4.70278 321.003 4.70278H325.911C326.912 4.70278 327.724 5.51455 327.724 6.51591V11.1174C327.724 12.1187 326.912 12.9305 325.911 12.9305H321.003ZM336.365 12.9305C335.363 12.9305 334.552 12.1187 334.552 11.1174V6.51591C334.552 5.51455 335.363 4.70278 336.365 4.70278H341.273C342.274 4.70278 343.086 5.51455 343.086 6.51591V11.1174C343.086 12.1187 342.274 12.9305 341.273 12.9305H336.365ZM351.727 12.9305C350.726 12.9305 349.914 12.1187 349.914 11.1174V6.51591C349.914 5.51455 350.726 4.70278 351.727 4.70278H356.635C357.637 4.70278 358.448 5.51455 358.448 6.51591V11.1174C358.448 12.1187 357.637 12.9305 356.635 12.9305L351.727 12.9305ZM367.089 12.9305C366.088 12.9305 365.276 12.1187 365.276 11.1174V6.51591C365.276 5.51455 366.088 4.70278 367.089 4.70278H371.997C372.999 4.70278 373.81 5.51455 373.81 6.51591V11.1174C373.81 12.1187 372.999 12.9305 371.997 12.9305H367.089ZM382.451 12.9305C381.45 12.9305 380.638 12.1187 380.638 11.1174V6.51591C380.638 5.51455 381.45 4.70278 382.451 4.70278H387.359C388.361 4.70278 389.172 5.51455 389.172 6.51591V11.1174C389.172 12.1187 388.361 12.9305 387.359 12.9305H382.451ZM334.552 52.9045H305.641C304.639 52.9045 303.828 52.0927 303.828 51.0913V19.4487C303.828 18.4473 304.639 17.6355 305.641 17.6355H341.273C342.274 17.6355 343.086 18.4473 343.086 19.4487V51.0913C343.086 52.0927 342.274 52.9045 341.273 52.9045H334.552ZM380.638 52.9045H351.727C350.726 52.9045 349.914 52.0927 349.914 51.0913V19.4487C349.914 18.4473 350.726 17.6355 351.727 17.6355L387.359 17.6355C388.361 17.6355 389.172 18.4473 389.172 19.4487V51.0913C389.172 52.0927 388.361 52.9045 387.359 52.9045L380.638 52.9045ZM305.641 65.8372C304.639 65.8372 303.828 65.0255 303.828 64.0241V59.4204C303.828 58.4191 304.639 57.6073 305.641 57.6073H310.549C311.55 57.6073 312.362 58.4191 312.362 59.4204V64.0241C312.362 65.0255 311.55 65.8372 310.549 65.8372H305.641ZM321.003 65.8372C320.001 65.8372 319.19 65.0255 319.19 64.0241V59.4204C319.19 58.4191 320.001 57.6073 321.003 57.6073H325.911C326.912 57.6073 327.724 58.4191 327.724 59.4204V64.0241C327.724 65.0255 326.912 65.8372 325.911 65.8372H321.003ZM336.365 65.8372C335.363 65.8372 334.552 65.0255 334.552 64.0241V59.4204C334.552 58.4191 335.363 57.6073 336.365 57.6073H341.273C342.274 57.6073 343.086 58.4191 343.086 59.4204V64.0241C343.086 65.0255 342.274 65.8372 341.273 65.8372H336.365ZM351.727 65.8372C350.726 65.8372 349.914 65.0255 349.914 64.0241V59.4204C349.914 58.4191 350.726 57.6073 351.727 57.6073H356.635C357.637 57.6073 358.448 58.4191 358.448 59.4204V64.0241C358.448 65.0255 357.637 65.8372 356.635 65.8372H351.727ZM367.089 65.8372C366.088 65.8372 365.276 65.0255 365.276 64.0241V59.4204C365.276 58.4191 366.088 57.6073 367.089 57.6073L371.997 57.6073C372.999 57.6073 373.81 58.4191 373.81 59.4204V64.0241C373.81 65.0255 372.999 65.8372 371.997 65.8372H367.089ZM382.451 65.8372C381.45 65.8372 380.638 65.0255 380.638 64.0241V59.4204C380.638 58.4191 381.45 57.6073 382.451 57.6073H387.359C388.361 57.6073 389.172 58.4191 389.172 59.4204V64.0241C389.172 65.0255 388.361 65.8372 387.359 65.8372H382.451Z" fill="white"/>
<path d="M495 52.9045V1.8131C495 0.811729 494.188 -3.8147e-05 493.187 -3.8147e-05H397.813C396.812 -3.8147e-05 396 0.811729 396 1.8131V68.7269C396 69.7283 396.812 70.54 397.813 70.54H493.187C494.188 70.54 495 69.7283 495 68.7269V52.9045ZM404.641 12.9305C403.639 12.9305 402.828 12.1187 402.828 11.1174V6.51591C402.828 5.51455 403.639 4.70278 404.641 4.70278H409.549C410.55 4.70278 411.362 5.51455 411.362 6.51591V11.1174C411.362 12.1187 410.55 12.9305 409.549 12.9305H404.641ZM420.003 12.9305C419.001 12.9305 418.19 12.1187 418.19 11.1174V6.51591C418.19 5.51455 419.001 4.70278 420.003 4.70278H424.911C425.912 4.70278 426.724 5.51455 426.724 6.51591V11.1174C426.724 12.1187 425.912 12.9305 424.911 12.9305H420.003ZM435.365 12.9305C434.363 12.9305 433.552 12.1187 433.552 11.1174V6.51591C433.552 5.51455 434.363 4.70278 435.365 4.70278H440.273C441.274 4.70278 442.086 5.51455 442.086 6.51591V11.1174C442.086 12.1187 441.274 12.9305 440.273 12.9305H435.365ZM450.727 12.9305C449.726 12.9305 448.914 12.1187 448.914 11.1174V6.51591C448.914 5.51455 449.726 4.70278 450.727 4.70278H455.635C456.637 4.70278 457.448 5.51455 457.448 6.51591V11.1174C457.448 12.1187 456.637 12.9305 455.635 12.9305L450.727 12.9305ZM466.089 12.9305C465.088 12.9305 464.276 12.1187 464.276 11.1174V6.51591C464.276 5.51455 465.088 4.70278 466.089 4.70278H470.997C471.999 4.70278 472.81 5.51455 472.81 6.51591V11.1174C472.81 12.1187 471.999 12.9305 470.997 12.9305H466.089ZM481.451 12.9305C480.45 12.9305 479.638 12.1187 479.638 11.1174V6.51591C479.638 5.51455 480.45 4.70278 481.451 4.70278H486.359C487.361 4.70278 488.172 5.51455 488.172 6.51591V11.1174C488.172 12.1187 487.361 12.9305 486.359 12.9305H481.451ZM433.552 52.9045H404.641C403.639 52.9045 402.828 52.0927 402.828 51.0913V19.4487C402.828 18.4473 403.639 17.6355 404.641 17.6355H440.273C441.274 17.6355 442.086 18.4473 442.086 19.4487V51.0913C442.086 52.0927 441.274 52.9045 440.273 52.9045H433.552ZM479.638 52.9045H450.727C449.726 52.9045 448.914 52.0927 448.914 51.0913V19.4487C448.914 18.4473 449.726 17.6355 450.727 17.6355L486.359 17.6355C487.361 17.6355 488.172 18.4473 488.172 19.4487V51.0913C488.172 52.0927 487.361 52.9045 486.359 52.9045L479.638 52.9045ZM404.641 65.8372C403.639 65.8372 402.828 65.0255 402.828 64.0241V59.4204C402.828 58.4191 403.639 57.6073 404.641 57.6073H409.549C410.55 57.6073 411.362 58.4191 411.362 59.4204V64.0241C411.362 65.0255 410.55 65.8372 409.549 65.8372H404.641ZM420.003 65.8372C419.001 65.8372 418.19 65.0255 418.19 64.0241V59.4204C418.19 58.4191 419.001 57.6073 420.003 57.6073H424.911C425.912 57.6073 426.724 58.4191 426.724 59.4204V64.0241C426.724 65.0255 425.912 65.8372 424.911 65.8372H420.003ZM435.365 65.8372C434.363 65.8372 433.552 65.0255 433.552 64.0241V59.4204C433.552 58.4191 434.363 57.6073 435.365 57.6073H440.273C441.274 57.6073 442.086 58.4191 442.086 59.4204V64.0241C442.086 65.0255 441.274 65.8372 440.273 65.8372H435.365ZM450.727 65.8372C449.726 65.8372 448.914 65.0255 448.914 64.0241V59.4204C448.914 58.4191 449.726 57.6073 450.727 57.6073H455.635C456.637 57.6073 457.448 58.4191 457.448 59.4204V64.0241C457.448 65.0255 456.637 65.8372 455.635 65.8372H450.727ZM466.089 65.8372C465.088 65.8372 464.276 65.0255 464.276 64.0241V59.4204C464.276 58.4191 465.088 57.6073 466.089 57.6073L470.997 57.6073C471.999 57.6073 472.81 58.4191 472.81 59.4204V64.0241C472.81 65.0255 471.999 65.8372 470.997 65.8372H466.089ZM481.451 65.8372C480.45 65.8372 479.638 65.0255 479.638 64.0241V59.4204C479.638 58.4191 480.45 57.6073 481.451 57.6073H486.359C487.361 57.6073 488.172 58.4191 488.172 59.4204V64.0241C488.172 65.0255 487.361 65.8372 486.359 65.8372H481.451Z" fill="white"/>
<path d="M594 52.9045V1.8131C594 0.811729 593.188 -3.8147e-05 592.187 -3.8147e-05H496.813C495.812 -3.8147e-05 495 0.811729 495 1.8131V68.7269C495 69.7283 495.812 70.54 496.813 70.54H592.187C593.188 70.54 594 69.7283 594 68.7269V52.9045ZM503.641 12.9305C502.639 12.9305 501.828 12.1187 501.828 11.1174V6.51591C501.828 5.51455 502.639 4.70278 503.641 4.70278H508.549C509.55 4.70278 510.362 5.51455 510.362 6.51591V11.1174C510.362 12.1187 509.55 12.9305 508.549 12.9305H503.641ZM519.003 12.9305C518.001 12.9305 517.19 12.1187 517.19 11.1174V6.51591C517.19 5.51455 518.001 4.70278 519.003 4.70278H523.911C524.912 4.70278 525.724 5.51455 525.724 6.51591V11.1174C525.724 12.1187 524.912 12.9305 523.911 12.9305H519.003ZM534.365 12.9305C533.363 12.9305 532.552 12.1187 532.552 11.1174V6.51591C532.552 5.51455 533.363 4.70278 534.365 4.70278H539.273C540.274 4.70278 541.086 5.51455 541.086 6.51591V11.1174C541.086 12.1187 540.274 12.9305 539.273 12.9305H534.365ZM549.727 12.9305C548.726 12.9305 547.914 12.1187 547.914 11.1174V6.51591C547.914 5.51455 548.726 4.70278 549.727 4.70278H554.635C555.637 4.70278 556.448 5.51455 556.448 6.51591V11.1174C556.448 12.1187 555.637 12.9305 554.635 12.9305L549.727 12.9305ZM565.089 12.9305C564.088 12.9305 563.276 12.1187 563.276 11.1174V6.51591C563.276 5.51455 564.088 4.70278 565.089 4.70278H569.997C570.999 4.70278 571.81 5.51455 571.81 6.51591V11.1174C571.81 12.1187 570.999 12.9305 569.997 12.9305H565.089ZM580.451 12.9305C579.45 12.9305 578.638 12.1187 578.638 11.1174V6.51591C578.638 5.51455 579.45 4.70278 580.451 4.70278H585.359C586.361 4.70278 587.172 5.51455 587.172 6.51591V11.1174C587.172 12.1187 586.361 12.9305 585.359 12.9305H580.451ZM532.552 52.9045H503.641C502.639 52.9045 501.828 52.0927 501.828 51.0913V19.4487C501.828 18.4473 502.639 17.6355 503.641 17.6355H539.273C540.274 17.6355 541.086 18.4473 541.086 19.4487V51.0913C541.086 52.0927 540.274 52.9045 539.273 52.9045H532.552ZM578.638 52.9045H549.727C548.726 52.9045 547.914 52.0927 547.914 51.0913V19.4487C547.914 18.4473 548.726 17.6355 549.727 17.6355L585.359 17.6355C586.361 17.6355 587.172 18.4473 587.172 19.4487V51.0913C587.172 52.0927 586.361 52.9045 585.359 52.9045L578.638 52.9045ZM503.641 65.8372C502.639 65.8372 501.828 65.0255 501.828 64.0241V59.4204C501.828 58.4191 502.639 57.6073 503.641 57.6073H508.549C509.55 57.6073 510.362 58.4191 510.362 59.4204V64.0241C510.362 65.0255 509.55 65.8372 508.549 65.8372H503.641ZM519.003 65.8372C518.001 65.8372 517.19 65.0255 517.19 64.0241V59.4204C517.19 58.4191 518.001 57.6073 519.003 57.6073H523.911C524.912 57.6073 525.724 58.4191 525.724 59.4204V64.0241C525.724 65.0255 524.912 65.8372 523.911 65.8372H519.003ZM534.365 65.8372C533.363 65.8372 532.552 65.0255 532.552 64.0241V59.4204C532.552 58.4191 533.363 57.6073 534.365 57.6073H539.273C540.274 57.6073 541.086 58.4191 541.086 59.4204V64.0241C541.086 65.0255 540.274 65.8372 539.273 65.8372H534.365ZM549.727 65.8372C548.726 65.8372 547.914 65.0255 547.914 64.0241V59.4204C547.914 58.4191 548.726 57.6073 549.727 57.6073H554.635C555.637 57.6073 556.448 58.4191 556.448 59.4204V64.0241C556.448 65.0255 555.637 65.8372 554.635 65.8372H549.727ZM565.089 65.8372C564.088 65.8372 563.276 65.0255 563.276 64.0241V59.4204C563.276 58.4191 564.088 57.6073 565.089 57.6073L569.997 57.6073C570.999 57.6073 571.81 58.4191 571.81 59.4204V64.0241C571.81 65.0255 570.999 65.8372 569.997 65.8372H565.089ZM580.451 65.8372C579.45 65.8372 578.638 65.0255 578.638 64.0241V59.4204C578.638 58.4191 579.45 57.6073 580.451 57.6073H585.359C586.361 57.6073 587.172 58.4191 587.172 59.4204V64.0241C587.172 65.0255 586.361 65.8372 585.359 65.8372H580.451Z" fill="white"/>
<path d="M693 52.9045V1.8131C693 0.811729 692.188 -3.8147e-05 691.187 -3.8147e-05H595.813C594.812 -3.8147e-05 594 0.811729 594 1.8131V68.7269C594 69.7283 594.812 70.54 595.813 70.54H691.187C692.188 70.54 693 69.7283 693 68.7269V52.9045ZM602.641 12.9305C601.639 12.9305 600.828 12.1187 600.828 11.1174V6.51591C600.828 5.51455 601.639 4.70278 602.641 4.70278H607.549C608.55 4.70278 609.362 5.51455 609.362 6.51591V11.1174C609.362 12.1187 608.55 12.9305 607.549 12.9305H602.641ZM618.003 12.9305C617.001 12.9305 616.19 12.1187 616.19 11.1174V6.51591C616.19 5.51455 617.001 4.70278 618.003 4.70278H622.911C623.912 4.70278 624.724 5.51455 624.724 6.51591V11.1174C624.724 12.1187 623.912 12.9305 622.911 12.9305H618.003ZM633.365 12.9305C632.363 12.9305 631.552 12.1187 631.552 11.1174V6.51591C631.552 5.51455 632.363 4.70278 633.365 4.70278H638.273C639.274 4.70278 640.086 5.51455 640.086 6.51591V11.1174C640.086 12.1187 639.274 12.9305 638.273 12.9305H633.365ZM648.727 12.9305C647.726 12.9305 646.914 12.1187 646.914 11.1174V6.51591C646.914 5.51455 647.726 4.70278 648.727 4.70278H653.635C654.637 4.70278 655.448 5.51455 655.448 6.51591V11.1174C655.448 12.1187 654.637 12.9305 653.635 12.9305L648.727 12.9305ZM664.089 12.9305C663.088 12.9305 662.276 12.1187 662.276 11.1174V6.51591C662.276 5.51455 663.088 4.70278 664.089 4.70278H668.997C669.999 4.70278 670.81 5.51455 670.81 6.51591V11.1174C670.81 12.1187 669.999 12.9305 668.997 12.9305H664.089ZM679.451 12.9305C678.45 12.9305 677.638 12.1187 677.638 11.1174V6.51591C677.638 5.51455 678.45 4.70278 679.451 4.70278H684.359C685.361 4.70278 686.172 5.51455 686.172 6.51591V11.1174C686.172 12.1187 685.361 12.9305 684.359 12.9305H679.451ZM631.552 52.9045H602.641C601.639 52.9045 600.828 52.0927 600.828 51.0913V19.4487C600.828 18.4473 601.639 17.6355 602.641 17.6355H638.273C639.274 17.6355 640.086 18.4473 640.086 19.4487V51.0913C640.086 52.0927 639.274 52.9045 638.273 52.9045H631.552ZM677.638 52.9045H648.727C647.726 52.9045 646.914 52.0927 646.914 51.0913V19.4487C646.914 18.4473 647.726 17.6355 648.727 17.6355L684.359 17.6355C685.361 17.6355 686.172 18.4473 686.172 19.4487V51.0913C686.172 52.0927 685.361 52.9045 684.359 52.9045L677.638 52.9045ZM602.641 65.8372C601.639 65.8372 600.828 65.0255 600.828 64.0241V59.4204C600.828 58.4191 601.639 57.6073 602.641 57.6073H607.549C608.55 57.6073 609.362 58.4191 609.362 59.4204V64.0241C609.362 65.0255 608.55 65.8372 607.549 65.8372H602.641ZM618.003 65.8372C617.001 65.8372 616.19 65.0255 616.19 64.0241V59.4204C616.19 58.4191 617.001 57.6073 618.003 57.6073H622.911C623.912 57.6073 624.724 58.4191 624.724 59.4204V64.0241C624.724 65.0255 623.912 65.8372 622.911 65.8372H618.003ZM633.365 65.8372C632.363 65.8372 631.552 65.0255 631.552 64.0241V59.4204C631.552 58.4191 632.363 57.6073 633.365 57.6073H638.273C639.274 57.6073 640.086 58.4191 640.086 59.4204V64.0241C640.086 65.0255 639.274 65.8372 638.273 65.8372H633.365ZM648.727 65.8372C647.726 65.8372 646.914 65.0255 646.914 64.0241V59.4204C646.914 58.4191 647.726 57.6073 648.727 57.6073H653.635C654.637 57.6073 655.448 58.4191 655.448 59.4204V64.0241C655.448 65.0255 654.637 65.8372 653.635 65.8372H648.727ZM664.089 65.8372C663.088 65.8372 662.276 65.0255 662.276 64.0241V59.4204C662.276 58.4191 663.088 57.6073 664.089 57.6073L668.997 57.6073C669.999 57.6073 670.81 58.4191 670.81 59.4204V64.0241C670.81 65.0255 669.999 65.8372 668.997 65.8372H664.089ZM679.451 65.8372C678.45 65.8372 677.638 65.0255 677.638 64.0241V59.4204C677.638 58.4191 678.45 57.6073 679.451 57.6073H684.359C685.361 57.6073 686.172 58.4191 686.172 59.4204V64.0241C686.172 65.0255 685.361 65.8372 684.359 65.8372H679.451Z" fill="white"/>
<path d="M792 52.9045V1.8131C792 0.811729 791.188 -3.8147e-05 790.187 -3.8147e-05H694.813C693.812 -3.8147e-05 693 0.811729 693 1.8131V68.7269C693 69.7283 693.812 70.54 694.813 70.54H790.187C791.188 70.54 792 69.7283 792 68.7269V52.9045ZM701.641 12.9305C700.639 12.9305 699.828 12.1187 699.828 11.1174V6.51591C699.828 5.51455 700.639 4.70278 701.641 4.70278H706.549C707.55 4.70278 708.362 5.51455 708.362 6.51591V11.1174C708.362 12.1187 707.55 12.9305 706.549 12.9305H701.641ZM717.003 12.9305C716.001 12.9305 715.19 12.1187 715.19 11.1174V6.51591C715.19 5.51455 716.001 4.70278 717.003 4.70278H721.911C722.912 4.70278 723.724 5.51455 723.724 6.51591V11.1174C723.724 12.1187 722.912 12.9305 721.911 12.9305H717.003ZM732.365 12.9305C731.363 12.9305 730.552 12.1187 730.552 11.1174V6.51591C730.552 5.51455 731.363 4.70278 732.365 4.70278H737.273C738.274 4.70278 739.086 5.51455 739.086 6.51591V11.1174C739.086 12.1187 738.274 12.9305 737.273 12.9305H732.365ZM747.727 12.9305C746.726 12.9305 745.914 12.1187 745.914 11.1174V6.51591C745.914 5.51455 746.726 4.70278 747.727 4.70278H752.635C753.637 4.70278 754.448 5.51455 754.448 6.51591V11.1174C754.448 12.1187 753.637 12.9305 752.635 12.9305L747.727 12.9305ZM763.089 12.9305C762.088 12.9305 761.276 12.1187 761.276 11.1174V6.51591C761.276 5.51455 762.088 4.70278 763.089 4.70278H767.997C768.999 4.70278 769.81 5.51455 769.81 6.51591V11.1174C769.81 12.1187 768.999 12.9305 767.997 12.9305H763.089ZM778.451 12.9305C777.45 12.9305 776.638 12.1187 776.638 11.1174V6.51591C776.638 5.51455 777.45 4.70278 778.451 4.70278H783.359C784.361 4.70278 785.172 5.51455 785.172 6.51591V11.1174C785.172 12.1187 784.361 12.9305 783.359 12.9305H778.451ZM730.552 52.9045H701.641C700.639 52.9045 699.828 52.0927 699.828 51.0913V19.4487C699.828 18.4473 700.639 17.6355 701.641 17.6355H737.273C738.274 17.6355 739.086 18.4473 739.086 19.4487V51.0913C739.086 52.0927 738.274 52.9045 737.273 52.9045H730.552ZM776.638 52.9045H747.727C746.726 52.9045 745.914 52.0927 745.914 51.0913V19.4487C745.914 18.4473 746.726 17.6355 747.727 17.6355L783.359 17.6355C784.361 17.6355 785.172 18.4473 785.172 19.4487V51.0913C785.172 52.0927 784.361 52.9045 783.359 52.9045L776.638 52.9045ZM701.641 65.8372C700.639 65.8372 699.828 65.0255 699.828 64.0241V59.4204C699.828 58.4191 700.639 57.6073 701.641 57.6073H706.549C707.55 57.6073 708.362 58.4191 708.362 59.4204V64.0241C708.362 65.0255 707.55 65.8372 706.549 65.8372H701.641ZM717.003 65.8372C716.001 65.8372 715.19 65.0255 715.19 64.0241V59.4204C715.19 58.4191 716.001 57.6073 717.003 57.6073H721.911C722.912 57.6073 723.724 58.4191 723.724 59.4204V64.0241C723.724 65.0255 722.912 65.8372 721.911 65.8372H717.003ZM732.365 65.8372C731.363 65.8372 730.552 65.0255 730.552 64.0241V59.4204C730.552 58.4191 731.363 57.6073 732.365 57.6073H737.273C738.274 57.6073 739.086 58.4191 739.086 59.4204V64.0241C739.086 65.0255 738.274 65.8372 737.273 65.8372H732.365ZM747.727 65.8372C746.726 65.8372 745.914 65.0255 745.914 64.0241V59.4204C745.914 58.4191 746.726 57.6073 747.727 57.6073H752.635C753.637 57.6073 754.448 58.4191 754.448 59.4204V64.0241C754.448 65.0255 753.637 65.8372 752.635 65.8372H747.727ZM763.089 65.8372C762.088 65.8372 761.276 65.0255 761.276 64.0241V59.4204C761.276 58.4191 762.088 57.6073 763.089 57.6073L767.997 57.6073C768.999 57.6073 769.81 58.4191 769.81 59.4204V64.0241C769.81 65.0255 768.999 65.8372 767.997 65.8372H763.089ZM778.451 65.8372C777.45 65.8372 776.638 65.0255 776.638 64.0241V59.4204C776.638 58.4191 777.45 57.6073 778.451 57.6073H783.359C784.361 57.6073 785.172 58.4191 785.172 59.4204V64.0241C785.172 65.0255 784.361 65.8372 783.359 65.8372H778.451Z" fill="white"/>
<path d="M891 52.9045V1.8131C891 0.811729 890.188 -3.8147e-05 889.187 -3.8147e-05H793.813C792.812 -3.8147e-05 792 0.811729 792 1.8131V68.7269C792 69.7283 792.812 70.54 793.813 70.54H889.187C890.188 70.54 891 69.7283 891 68.7269V52.9045ZM800.641 12.9305C799.639 12.9305 798.828 12.1187 798.828 11.1174V6.51591C798.828 5.51455 799.639 4.70278 800.641 4.70278H805.549C806.55 4.70278 807.362 5.51455 807.362 6.51591V11.1174C807.362 12.1187 806.55 12.9305 805.549 12.9305H800.641ZM816.003 12.9305C815.001 12.9305 814.19 12.1187 814.19 11.1174V6.51591C814.19 5.51455 815.001 4.70278 816.003 4.70278H820.911C821.912 4.70278 822.724 5.51455 822.724 6.51591V11.1174C822.724 12.1187 821.912 12.9305 820.911 12.9305H816.003ZM831.365 12.9305C830.363 12.9305 829.552 12.1187 829.552 11.1174V6.51591C829.552 5.51455 830.363 4.70278 831.365 4.70278H836.273C837.274 4.70278 838.086 5.51455 838.086 6.51591V11.1174C838.086 12.1187 837.274 12.9305 836.273 12.9305H831.365ZM846.727 12.9305C845.726 12.9305 844.914 12.1187 844.914 11.1174V6.51591C844.914 5.51455 845.726 4.70278 846.727 4.70278H851.635C852.637 4.70278 853.448 5.51455 853.448 6.51591V11.1174C853.448 12.1187 852.637 12.9305 851.635 12.9305L846.727 12.9305ZM862.089 12.9305C861.088 12.9305 860.276 12.1187 860.276 11.1174V6.51591C860.276 5.51455 861.088 4.70278 862.089 4.70278H866.997C867.999 4.70278 868.81 5.51455 868.81 6.51591V11.1174C868.81 12.1187 867.999 12.9305 866.997 12.9305H862.089ZM877.451 12.9305C876.45 12.9305 875.638 12.1187 875.638 11.1174V6.51591C875.638 5.51455 876.45 4.70278 877.451 4.70278H882.359C883.361 4.70278 884.172 5.51455 884.172 6.51591V11.1174C884.172 12.1187 883.361 12.9305 882.359 12.9305H877.451ZM829.552 52.9045H800.641C799.639 52.9045 798.828 52.0927 798.828 51.0913V19.4487C798.828 18.4473 799.639 17.6355 800.641 17.6355H836.273C837.274 17.6355 838.086 18.4473 838.086 19.4487V51.0913C838.086 52.0927 837.274 52.9045 836.273 52.9045H829.552ZM875.638 52.9045H846.727C845.726 52.9045 844.914 52.0927 844.914 51.0913V19.4487C844.914 18.4473 845.726 17.6355 846.727 17.6355L882.359 17.6355C883.361 17.6355 884.172 18.4473 884.172 19.4487V51.0913C884.172 52.0927 883.361 52.9045 882.359 52.9045L875.638 52.9045ZM800.641 65.8372C799.639 65.8372 798.828 65.0255 798.828 64.0241V59.4204C798.828 58.4191 799.639 57.6073 800.641 57.6073H805.549C806.55 57.6073 807.362 58.4191 807.362 59.4204V64.0241C807.362 65.0255 806.55 65.8372 805.549 65.8372H800.641ZM816.003 65.8372C815.001 65.8372 814.19 65.0255 814.19 64.0241V59.4204C814.19 58.4191 815.001 57.6073 816.003 57.6073H820.911C821.912 57.6073 822.724 58.4191 822.724 59.4204V64.0241C822.724 65.0255 821.912 65.8372 820.911 65.8372H816.003ZM831.365 65.8372C830.363 65.8372 829.552 65.0255 829.552 64.0241V59.4204C829.552 58.4191 830.363 57.6073 831.365 57.6073H836.273C837.274 57.6073 838.086 58.4191 838.086 59.4204V64.0241C838.086 65.0255 837.274 65.8372 836.273 65.8372H831.365ZM846.727 65.8372C845.726 65.8372 844.914 65.0255 844.914 64.0241V59.4204C844.914 58.4191 845.726 57.6073 846.727 57.6073H851.635C852.637 57.6073 853.448 58.4191 853.448 59.4204V64.0241C853.448 65.0255 852.637 65.8372 851.635 65.8372H846.727ZM862.089 65.8372C861.088 65.8372 860.276 65.0255 860.276 64.0241V59.4204C860.276 58.4191 861.088 57.6073 862.089 57.6073L866.997 57.6073C867.999 57.6073 868.81 58.4191 868.81 59.4204V64.0241C868.81 65.0255 867.999 65.8372 866.997 65.8372H862.089ZM877.451 65.8372C876.45 65.8372 875.638 65.0255 875.638 64.0241V59.4204C875.638 58.4191 876.45 57.6073 877.451 57.6073H882.359C883.361 57.6073 884.172 58.4191 884.172 59.4204V64.0241C884.172 65.0255 883.361 65.8372 882.359 65.8372H877.451Z" fill="white"/>
<path d="M990 52.9045V1.8131C990 0.811729 989.188 -3.8147e-05 988.187 -3.8147e-05H892.813C891.812 -3.8147e-05 891 0.811729 891 1.8131V68.7269C891 69.7283 891.812 70.54 892.813 70.54H988.187C989.188 70.54 990 69.7283 990 68.7269V52.9045ZM899.641 12.9305C898.639 12.9305 897.828 12.1187 897.828 11.1174V6.51591C897.828 5.51455 898.639 4.70278 899.641 4.70278H904.549C905.55 4.70278 906.362 5.51455 906.362 6.51591V11.1174C906.362 12.1187 905.55 12.9305 904.549 12.9305H899.641ZM915.003 12.9305C914.001 12.9305 913.19 12.1187 913.19 11.1174V6.51591C913.19 5.51455 914.001 4.70278 915.003 4.70278H919.911C920.912 4.70278 921.724 5.51455 921.724 6.51591V11.1174C921.724 12.1187 920.912 12.9305 919.911 12.9305H915.003ZM930.365 12.9305C929.363 12.9305 928.552 12.1187 928.552 11.1174V6.51591C928.552 5.51455 929.363 4.70278 930.365 4.70278H935.273C936.274 4.70278 937.086 5.51455 937.086 6.51591V11.1174C937.086 12.1187 936.274 12.9305 935.273 12.9305H930.365ZM945.727 12.9305C944.726 12.9305 943.914 12.1187 943.914 11.1174V6.51591C943.914 5.51455 944.726 4.70278 945.727 4.70278H950.635C951.637 4.70278 952.448 5.51455 952.448 6.51591V11.1174C952.448 12.1187 951.637 12.9305 950.635 12.9305L945.727 12.9305ZM961.089 12.9305C960.088 12.9305 959.276 12.1187 959.276 11.1174V6.51591C959.276 5.51455 960.088 4.70278 961.089 4.70278H965.997C966.999 4.70278 967.81 5.51455 967.81 6.51591V11.1174C967.81 12.1187 966.999 12.9305 965.997 12.9305H961.089ZM976.451 12.9305C975.45 12.9305 974.638 12.1187 974.638 11.1174V6.51591C974.638 5.51455 975.45 4.70278 976.451 4.70278H981.359C982.361 4.70278 983.172 5.51455 983.172 6.51591V11.1174C983.172 12.1187 982.361 12.9305 981.359 12.9305H976.451ZM928.552 52.9045H899.641C898.639 52.9045 897.828 52.0927 897.828 51.0913V19.4487C897.828 18.4473 898.639 17.6355 899.641 17.6355H935.273C936.274 17.6355 937.086 18.4473 937.086 19.4487V51.0913C937.086 52.0927 936.274 52.9045 935.273 52.9045H928.552ZM974.638 52.9045H945.727C944.726 52.9045 943.914 52.0927 943.914 51.0913V19.4487C943.914 18.4473 944.726 17.6355 945.727 17.6355L981.359 17.6355C982.361 17.6355 983.172 18.4473 983.172 19.4487V51.0913C983.172 52.0927 982.361 52.9045 981.359 52.9045L974.638 52.9045ZM899.641 65.8372C898.639 65.8372 897.828 65.0255 897.828 64.0241V59.4204C897.828 58.4191 898.639 57.6073 899.641 57.6073H904.549C905.55 57.6073 906.362 58.4191 906.362 59.4204V64.0241C906.362 65.0255 905.55 65.8372 904.549 65.8372H899.641ZM915.003 65.8372C914.001 65.8372 913.19 65.0255 913.19 64.0241V59.4204C913.19 58.4191 914.001 57.6073 915.003 57.6073H919.911C920.912 57.6073 921.724 58.4191 921.724 59.4204V64.0241C921.724 65.0255 920.912 65.8372 919.911 65.8372H915.003ZM930.365 65.8372C929.363 65.8372 928.552 65.0255 928.552 64.0241V59.4204C928.552 58.4191 929.363 57.6073 930.365 57.6073H935.273C936.274 57.6073 937.086 58.4191 937.086 59.4204V64.0241C937.086 65.0255 936.274 65.8372 935.273 65.8372H930.365ZM945.727 65.8372C944.726 65.8372 943.914 65.0255 943.914 64.0241V59.4204C943.914 58.4191 944.726 57.6073 945.727 57.6073H950.635C951.637 57.6073 952.448 58.4191 952.448 59.4204V64.0241C952.448 65.0255 951.637 65.8372 950.635 65.8372H945.727ZM961.089 65.8372C960.088 65.8372 959.276 65.0255 959.276 64.0241V59.4204C959.276 58.4191 960.088 57.6073 961.089 57.6073L965.997 57.6073C966.999 57.6073 967.81 58.4191 967.81 59.4204V64.0241C967.81 65.0255 966.999 65.8372 965.997 65.8372H961.089ZM976.451 65.8372C975.45 65.8372 974.638 65.0255 974.638 64.0241V59.4204C974.638 58.4191 975.45 57.6073 976.451 57.6073H981.359C982.361 57.6073 983.172 58.4191 983.172 59.4204V64.0241C983.172 65.0255 982.361 65.8372 981.359 65.8372H976.451Z" fill="white"/>
<path d="M1089 52.9045V1.8131C1089 0.811729 1088.19 -3.8147e-05 1087.19 -3.8147e-05H991.813C990.812 -3.8147e-05 990 0.811729 990 1.8131V68.7269C990 69.7283 990.812 70.54 991.813 70.54H1087.19C1088.19 70.54 1089 69.7283 1089 68.7269V52.9045ZM998.641 12.9305C997.639 12.9305 996.828 12.1187 996.828 11.1174V6.51591C996.828 5.51455 997.639 4.70278 998.641 4.70278H1003.55C1004.55 4.70278 1005.36 5.51455 1005.36 6.51591V11.1174C1005.36 12.1187 1004.55 12.9305 1003.55 12.9305H998.641ZM1014 12.9305C1013 12.9305 1012.19 12.1187 1012.19 11.1174V6.51591C1012.19 5.51455 1013 4.70278 1014 4.70278H1018.91C1019.91 4.70278 1020.72 5.51455 1020.72 6.51591V11.1174C1020.72 12.1187 1019.91 12.9305 1018.91 12.9305H1014ZM1029.36 12.9305C1028.36 12.9305 1027.55 12.1187 1027.55 11.1174V6.51591C1027.55 5.51455 1028.36 4.70278 1029.36 4.70278H1034.27C1035.27 4.70278 1036.09 5.51455 1036.09 6.51591V11.1174C1036.09 12.1187 1035.27 12.9305 1034.27 12.9305H1029.36ZM1044.73 12.9305C1043.73 12.9305 1042.91 12.1187 1042.91 11.1174V6.51591C1042.91 5.51455 1043.73 4.70278 1044.73 4.70278H1049.64C1050.64 4.70278 1051.45 5.51455 1051.45 6.51591V11.1174C1051.45 12.1187 1050.64 12.9305 1049.64 12.9305L1044.73 12.9305ZM1060.09 12.9305C1059.09 12.9305 1058.28 12.1187 1058.28 11.1174V6.51591C1058.28 5.51455 1059.09 4.70278 1060.09 4.70278H1065C1066 4.70278 1066.81 5.51455 1066.81 6.51591V11.1174C1066.81 12.1187 1066 12.9305 1065 12.9305H1060.09ZM1075.45 12.9305C1074.45 12.9305 1073.64 12.1187 1073.64 11.1174V6.51591C1073.64 5.51455 1074.45 4.70278 1075.45 4.70278H1080.36C1081.36 4.70278 1082.17 5.51455 1082.17 6.51591V11.1174C1082.17 12.1187 1081.36 12.9305 1080.36 12.9305H1075.45ZM1027.55 52.9045H998.641C997.639 52.9045 996.828 52.0927 996.828 51.0913V19.4487C996.828 18.4473 997.639 17.6355 998.641 17.6355H1034.27C1035.27 17.6355 1036.09 18.4473 1036.09 19.4487V51.0913C1036.09 52.0927 1035.27 52.9045 1034.27 52.9045H1027.55ZM1073.64 52.9045H1044.73C1043.73 52.9045 1042.91 52.0927 1042.91 51.0913V19.4487C1042.91 18.4473 1043.73 17.6355 1044.73 17.6355L1080.36 17.6355C1081.36 17.6355 1082.17 18.4473 1082.17 19.4487V51.0913C1082.17 52.0927 1081.36 52.9045 1080.36 52.9045L1073.64 52.9045ZM998.641 65.8372C997.639 65.8372 996.828 65.0255 996.828 64.0241V59.4204C996.828 58.4191 997.639 57.6073 998.641 57.6073H1003.55C1004.55 57.6073 1005.36 58.4191 1005.36 59.4204V64.0241C1005.36 65.0255 1004.55 65.8372 1003.55 65.8372H998.641ZM1014 65.8372C1013 65.8372 1012.19 65.0255 1012.19 64.0241V59.4204C1012.19 58.4191 1013 57.6073 1014 57.6073H1018.91C1019.91 57.6073 1020.72 58.4191 1020.72 59.4204V64.0241C1020.72 65.0255 1019.91 65.8372 1018.91 65.8372H1014ZM1029.36 65.8372C1028.36 65.8372 1027.55 65.0255 1027.55 64.0241V59.4204C1027.55 58.4191 1028.36 57.6073 1029.36 57.6073H1034.27C1035.27 57.6073 1036.09 58.4191 1036.09 59.4204V64.0241C1036.09 65.0255 1035.27 65.8372 1034.27 65.8372H1029.36ZM1044.73 65.8372C1043.73 65.8372 1042.91 65.0255 1042.91 64.0241V59.4204C1042.91 58.4191 1043.73 57.6073 1044.73 57.6073H1049.64C1050.64 57.6073 1051.45 58.4191 1051.45 59.4204V64.0241C1051.45 65.0255 1050.64 65.8372 1049.64 65.8372H1044.73ZM1060.09 65.8372C1059.09 65.8372 1058.28 65.0255 1058.28 64.0241V59.4204C1058.28 58.4191 1059.09 57.6073 1060.09 57.6073L1065 57.6073C1066 57.6073 1066.81 58.4191 1066.81 59.4204V64.0241C1066.81 65.0255 1066 65.8372 1065 65.8372H1060.09ZM1075.45 65.8372C1074.45 65.8372 1073.64 65.0255 1073.64 64.0241V59.4204C1073.64 58.4191 1074.45 57.6073 1075.45 57.6073H1080.36C1081.36 57.6073 1082.17 58.4191 1082.17 59.4204V64.0241C1082.17 65.0255 1081.36 65.8372 1080.36 65.8372H1075.45Z" fill="white"/>
<path d="M1188 52.9045V1.8131C1188 0.811729 1187.19 -3.8147e-05 1186.19 -3.8147e-05H1090.81C1089.81 -3.8147e-05 1089 0.811729 1089 1.8131V68.7269C1089 69.7283 1089.81 70.54 1090.81 70.54H1186.19C1187.19 70.54 1188 69.7283 1188 68.7269V52.9045ZM1097.64 12.9305C1096.64 12.9305 1095.83 12.1187 1095.83 11.1174V6.51591C1095.83 5.51455 1096.64 4.70278 1097.64 4.70278H1102.55C1103.55 4.70278 1104.36 5.51455 1104.36 6.51591V11.1174C1104.36 12.1187 1103.55 12.9305 1102.55 12.9305H1097.64ZM1113 12.9305C1112 12.9305 1111.19 12.1187 1111.19 11.1174V6.51591C1111.19 5.51455 1112 4.70278 1113 4.70278H1117.91C1118.91 4.70278 1119.72 5.51455 1119.72 6.51591V11.1174C1119.72 12.1187 1118.91 12.9305 1117.91 12.9305H1113ZM1128.36 12.9305C1127.36 12.9305 1126.55 12.1187 1126.55 11.1174V6.51591C1126.55 5.51455 1127.36 4.70278 1128.36 4.70278H1133.27C1134.27 4.70278 1135.09 5.51455 1135.09 6.51591V11.1174C1135.09 12.1187 1134.27 12.9305 1133.27 12.9305H1128.36ZM1143.73 12.9305C1142.73 12.9305 1141.91 12.1187 1141.91 11.1174V6.51591C1141.91 5.51455 1142.73 4.70278 1143.73 4.70278H1148.64C1149.64 4.70278 1150.45 5.51455 1150.45 6.51591V11.1174C1150.45 12.1187 1149.64 12.9305 1148.64 12.9305L1143.73 12.9305ZM1159.09 12.9305C1158.09 12.9305 1157.28 12.1187 1157.28 11.1174V6.51591C1157.28 5.51455 1158.09 4.70278 1159.09 4.70278H1164C1165 4.70278 1165.81 5.51455 1165.81 6.51591V11.1174C1165.81 12.1187 1165 12.9305 1164 12.9305H1159.09ZM1174.45 12.9305C1173.45 12.9305 1172.64 12.1187 1172.64 11.1174V6.51591C1172.64 5.51455 1173.45 4.70278 1174.45 4.70278H1179.36C1180.36 4.70278 1181.17 5.51455 1181.17 6.51591V11.1174C1181.17 12.1187 1180.36 12.9305 1179.36 12.9305H1174.45ZM1126.55 52.9045H1097.64C1096.64 52.9045 1095.83 52.0927 1095.83 51.0913V19.4487C1095.83 18.4473 1096.64 17.6355 1097.64 17.6355H1133.27C1134.27 17.6355 1135.09 18.4473 1135.09 19.4487V51.0913C1135.09 52.0927 1134.27 52.9045 1133.27 52.9045H1126.55ZM1172.64 52.9045H1143.73C1142.73 52.9045 1141.91 52.0927 1141.91 51.0913V19.4487C1141.91 18.4473 1142.73 17.6355 1143.73 17.6355L1179.36 17.6355C1180.36 17.6355 1181.17 18.4473 1181.17 19.4487V51.0913C1181.17 52.0927 1180.36 52.9045 1179.36 52.9045L1172.64 52.9045ZM1097.64 65.8372C1096.64 65.8372 1095.83 65.0255 1095.83 64.0241V59.4204C1095.83 58.4191 1096.64 57.6073 1097.64 57.6073H1102.55C1103.55 57.6073 1104.36 58.4191 1104.36 59.4204V64.0241C1104.36 65.0255 1103.55 65.8372 1102.55 65.8372H1097.64ZM1113 65.8372C1112 65.8372 1111.19 65.0255 1111.19 64.0241V59.4204C1111.19 58.4191 1112 57.6073 1113 57.6073H1117.91C1118.91 57.6073 1119.72 58.4191 1119.72 59.4204V64.0241C1119.72 65.0255 1118.91 65.8372 1117.91 65.8372H1113ZM1128.36 65.8372C1127.36 65.8372 1126.55 65.0255 1126.55 64.0241V59.4204C1126.55 58.4191 1127.36 57.6073 1128.36 57.6073H1133.27C1134.27 57.6073 1135.09 58.4191 1135.09 59.4204V64.0241C1135.09 65.0255 1134.27 65.8372 1133.27 65.8372H1128.36ZM1143.73 65.8372C1142.73 65.8372 1141.91 65.0255 1141.91 64.0241V59.4204C1141.91 58.4191 1142.73 57.6073 1143.73 57.6073H1148.64C1149.64 57.6073 1150.45 58.4191 1150.45 59.4204V64.0241C1150.45 65.0255 1149.64 65.8372 1148.64 65.8372H1143.73ZM1159.09 65.8372C1158.09 65.8372 1157.28 65.0255 1157.28 64.0241V59.4204C1157.28 58.4191 1158.09 57.6073 1159.09 57.6073L1164 57.6073C1165 57.6073 1165.81 58.4191 1165.81 59.4204V64.0241C1165.81 65.0255 1165 65.8372 1164 65.8372H1159.09ZM1174.45 65.8372C1173.45 65.8372 1172.64 65.0255 1172.64 64.0241V59.4204C1172.64 58.4191 1173.45 57.6073 1174.45 57.6073H1179.36C1180.36 57.6073 1181.17 58.4191 1181.17 59.4204V64.0241C1181.17 65.0255 1180.36 65.8372 1179.36 65.8372H1174.45Z" fill="white"/>
<path d="M1287 52.9045V1.8131C1287 0.811729 1286.19 -3.8147e-05 1285.19 -3.8147e-05H1189.81C1188.81 -3.8147e-05 1188 0.811729 1188 1.8131V68.7269C1188 69.7283 1188.81 70.54 1189.81 70.54H1285.19C1286.19 70.54 1287 69.7283 1287 68.7269V52.9045ZM1196.64 12.9305C1195.64 12.9305 1194.83 12.1187 1194.83 11.1174V6.51591C1194.83 5.51455 1195.64 4.70278 1196.64 4.70278H1201.55C1202.55 4.70278 1203.36 5.51455 1203.36 6.51591V11.1174C1203.36 12.1187 1202.55 12.9305 1201.55 12.9305H1196.64ZM1212 12.9305C1211 12.9305 1210.19 12.1187 1210.19 11.1174V6.51591C1210.19 5.51455 1211 4.70278 1212 4.70278H1216.91C1217.91 4.70278 1218.72 5.51455 1218.72 6.51591V11.1174C1218.72 12.1187 1217.91 12.9305 1216.91 12.9305H1212ZM1227.36 12.9305C1226.36 12.9305 1225.55 12.1187 1225.55 11.1174V6.51591C1225.55 5.51455 1226.36 4.70278 1227.36 4.70278H1232.27C1233.27 4.70278 1234.09 5.51455 1234.09 6.51591V11.1174C1234.09 12.1187 1233.27 12.9305 1232.27 12.9305H1227.36ZM1242.73 12.9305C1241.73 12.9305 1240.91 12.1187 1240.91 11.1174V6.51591C1240.91 5.51455 1241.73 4.70278 1242.73 4.70278H1247.64C1248.64 4.70278 1249.45 5.51455 1249.45 6.51591V11.1174C1249.45 12.1187 1248.64 12.9305 1247.64 12.9305L1242.73 12.9305ZM1258.09 12.9305C1257.09 12.9305 1256.28 12.1187 1256.28 11.1174V6.51591C1256.28 5.51455 1257.09 4.70278 1258.09 4.70278H1263C1264 4.70278 1264.81 5.51455 1264.81 6.51591V11.1174C1264.81 12.1187 1264 12.9305 1263 12.9305H1258.09ZM1273.45 12.9305C1272.45 12.9305 1271.64 12.1187 1271.64 11.1174V6.51591C1271.64 5.51455 1272.45 4.70278 1273.45 4.70278H1278.36C1279.36 4.70278 1280.17 5.51455 1280.17 6.51591V11.1174C1280.17 12.1187 1279.36 12.9305 1278.36 12.9305H1273.45ZM1225.55 52.9045H1196.64C1195.64 52.9045 1194.83 52.0927 1194.83 51.0913V19.4487C1194.83 18.4473 1195.64 17.6355 1196.64 17.6355H1232.27C1233.27 17.6355 1234.09 18.4473 1234.09 19.4487V51.0913C1234.09 52.0927 1233.27 52.9045 1232.27 52.9045H1225.55ZM1271.64 52.9045H1242.73C1241.73 52.9045 1240.91 52.0927 1240.91 51.0913V19.4487C1240.91 18.4473 1241.73 17.6355 1242.73 17.6355L1278.36 17.6355C1279.36 17.6355 1280.17 18.4473 1280.17 19.4487V51.0913C1280.17 52.0927 1279.36 52.9045 1278.36 52.9045L1271.64 52.9045ZM1196.64 65.8372C1195.64 65.8372 1194.83 65.0255 1194.83 64.0241V59.4204C1194.83 58.4191 1195.64 57.6073 1196.64 57.6073H1201.55C1202.55 57.6073 1203.36 58.4191 1203.36 59.4204V64.0241C1203.36 65.0255 1202.55 65.8372 1201.55 65.8372H1196.64ZM1212 65.8372C1211 65.8372 1210.19 65.0255 1210.19 64.0241V59.4204C1210.19 58.4191 1211 57.6073 1212 57.6073H1216.91C1217.91 57.6073 1218.72 58.4191 1218.72 59.4204V64.0241C1218.72 65.0255 1217.91 65.8372 1216.91 65.8372H1212ZM1227.36 65.8372C1226.36 65.8372 1225.55 65.0255 1225.55 64.0241V59.4204C1225.55 58.4191 1226.36 57.6073 1227.36 57.6073H1232.27C1233.27 57.6073 1234.09 58.4191 1234.09 59.4204V64.0241C1234.09 65.0255 1233.27 65.8372 1232.27 65.8372H1227.36ZM1242.73 65.8372C1241.73 65.8372 1240.91 65.0255 1240.91 64.0241V59.4204C1240.91 58.4191 1241.73 57.6073 1242.73 57.6073H1247.64C1248.64 57.6073 1249.45 58.4191 1249.45 59.4204V64.0241C1249.45 65.0255 1248.64 65.8372 1247.64 65.8372H1242.73ZM1258.09 65.8372C1257.09 65.8372 1256.28 65.0255 1256.28 64.0241V59.4204C1256.28 58.4191 1257.09 57.6073 1258.09 57.6073L1263 57.6073C1264 57.6073 1264.81 58.4191 1264.81 59.4204V64.0241C1264.81 65.0255 1264 65.8372 1263 65.8372H1258.09ZM1273.45 65.8372C1272.45 65.8372 1271.64 65.0255 1271.64 64.0241V59.4204C1271.64 58.4191 1272.45 57.6073 1273.45 57.6073H1278.36C1279.36 57.6073 1280.17 58.4191 1280.17 59.4204V64.0241C1280.17 65.0255 1279.36 65.8372 1278.36 65.8372H1273.45Z" fill="white"/>
</svg>
