<svg width="659" height="98" viewBox="0 0 659 98" fill="none" xmlns="http://www.w3.org/2000/svg">
<path d="M66.1957 5.92174C65.0273 5.7941 63.8687 5.66646 62.4449 5.66646H18.3091C7.82259 5.66646 2 10.4384 2 21.1508V80.8986C2 89.1562 6.5265 96 15.5893 96H62.4351C63.8588 96 65.0273 96 66.1859 95.7447C72.5289 94.969 78.2238 92.6518 83.6537 87.3594C88.9558 81.9394 92.3237 73.8094 92.3237 66.1997V35.4863C92.3237 27.8767 88.9558 19.7369 83.6537 14.4543C78.214 9.16197 72.5191 6.84472 66.1859 5.94139L66.1957 5.92174ZM63.8588 65.9936C63.8588 66.8871 63.093 67.5253 62.3173 67.5253H30.4747V34.1412H62.3173C63.093 34.1412 63.8588 34.7794 63.8588 35.6729V65.9837V65.9936Z" fill="white" stroke="black" stroke-width="3.92754" stroke-miterlimit="10"/>
<path d="M157.433 3.27644C146.818 3.27644 136.4 3.14879 125.786 3.14879C109.35 3.14879 95.4951 16.6596 95.4951 33.2927V81.3659C95.4951 99.1675 123.97 99.1675 123.97 81.3659V63.1813H124.942C136.076 63.309 147.201 63.309 158.336 63.309V81.3659C158.336 99.1675 186.811 99.1675 186.811 81.3659V31.9966C186.811 16.4043 172.701 3.28625 157.433 3.28625V3.27644ZM156.981 34.6968H125.983C123.803 34.6968 123.803 31.7511 125.855 31.7511H156.981C158.905 31.7511 159.033 34.6968 156.981 34.6968Z" fill="white" stroke="black" stroke-width="3.92754" stroke-miterlimit="10"/>
<path d="M252.597 16.6694V64.2712C252.597 65.0371 252.086 65.8128 251.183 65.8128C250.162 65.9404 249.651 65.0469 249.651 64.1436L249.523 32.3697C249.523 24.6128 246.421 17.3665 240.853 11.7992C229.08 0.154026 210.199 0.154026 198.554 11.7992C193.634 16.7184 190.797 22.7963 190.011 29.1393C189.756 30.3078 189.756 31.594 189.756 32.8901V80.6C189.756 98.2052 218.231 98.2052 218.231 80.6V32.8214C218.231 32.5661 218.358 32.1832 218.613 31.8002C219.252 31.2897 220.145 31.2897 220.666 31.8002C221.049 32.1832 221.176 32.5661 221.176 32.8214V64.5658C221.304 80.9044 234.785 94.258 251.124 94.258C267.462 94.258 281.071 80.384 281.071 63.9177V16.6694C281.071 -1.14206 252.597 -1.14206 252.597 16.6694Z" fill="white" stroke="black" stroke-width="3.92754" stroke-miterlimit="10"/>
<path d="M359.749 3.27646H325.678C308.073 3.27646 308.073 31.7512 325.678 31.7512H345.875V63.6036C345.875 64.3694 345.237 65.1353 344.344 65.1353H314.052C313.139 65.1353 312.491 64.3596 312.491 63.5937V57.0249C312.491 37.8192 284.017 37.5639 284.017 57.0249V63.8097C284.017 65.2335 284.017 66.3921 284.144 67.5507C285.048 73.8741 287.375 79.5494 292.677 84.9694C298.107 90.2618 306.119 93.6198 313.738 93.6198H344.491C352.248 93.6198 360.26 90.2618 365.69 84.9694C370.992 79.5494 373.319 73.8741 374.222 67.5507C374.35 66.3921 374.35 65.2237 374.35 63.8097V16.581C374.35 7.54767 366.986 3.28627 359.749 3.28627V3.27646Z" fill="white" stroke="black" stroke-width="3.92754" stroke-miterlimit="10"/>
<path d="M534.397 16.6694V64.2712C534.397 65.0371 533.887 65.8128 532.983 65.8128C531.962 65.9404 531.452 65.0469 531.452 64.1436L531.324 32.3697C531.324 24.6128 528.221 17.3665 522.654 11.7992C510.881 0.154026 492 0.154026 480.354 11.7992C475.435 16.7184 472.597 22.7963 471.812 29.1295C471.557 30.2979 471.557 31.5842 471.557 32.8803V80.5902C471.557 98.1954 500.031 98.1954 500.031 80.5902V32.8116C500.031 32.5563 500.159 32.1733 500.414 31.7904C501.053 31.2798 501.946 31.2798 502.466 31.7904C502.849 32.1733 502.977 32.5563 502.977 32.8116V64.556C503.105 80.8946 516.586 94.2482 532.925 94.2482C549.263 94.2482 562.872 80.3741 562.872 63.9079V16.6595C562.872 -1.15187 534.397 -1.15187 534.397 16.6595V16.6694Z" fill="white" stroke="black" stroke-width="3.92754" stroke-miterlimit="10"/>
<path d="M629.601 34.9521C628.452 34.6968 627.294 34.6969 625.89 34.6969H609.149C592.024 34.6969 592.024 62.1897 609.149 62.1897H626.381C628.315 62.1897 628.187 65.1353 626.381 65.1353H595.706C594.931 65.1353 594.293 64.4382 594.293 63.4563V33.3026C594.293 32.4483 594.98 31.761 595.834 31.761H643.21C660.815 31.761 660.815 3.2863 643.21 3.2863H595.706C594.283 3.2863 593.124 3.41396 591.956 3.5416C585.613 4.44494 579.918 6.78183 574.616 12.084C569.176 17.3862 565.818 25.5457 565.818 33.1848V64.0356C565.818 71.5961 569.146 79.6574 574.527 85.0382C580.163 90.6742 587.459 93.6198 595.402 93.6198H625.89C633.833 93.6198 641.129 90.6742 646.765 85.0382C658.292 73.5108 658.292 54.9434 646.765 43.416C641.511 38.0353 635.875 35.7278 629.601 34.962V34.9521Z" fill="white" stroke="black" stroke-width="3.92754" stroke-miterlimit="10"/>
<path d="M438.343 2.26178C445.952 2.19494 454.112 5.49125 459.578 10.7456C464.918 16.1288 467.285 21.8031 468.116 28.139C468.382 29.2954 468.392 30.4638 468.405 31.8875L468.816 78.7315C468.896 87.7939 462.092 92.3804 453.835 92.4529L438.343 2.26178ZM438.343 2.26178L407.631 2.53158C400.021 2.59843 391.911 6.03767 386.676 11.3861C381.431 16.872 379.164 22.5871 378.317 28.9279L378.297 28.9183C378.179 30.0878 378.062 31.2475 378.074 32.6712L378.462 76.8053C378.554 87.2914 383.377 93.0718 394.089 92.9777L438.343 2.26178Z" stroke="black" stroke-width="3.92754" stroke-miterlimit="10"/>
<line x1="426.798" y1="2.78014" x2="383.56" y2="89.325" stroke="black" stroke-width="1.83323"/>
<path d="M428.858 17.0116L424.202 8.80262L426.912 4.19557L435.161 4.1231L428.858 17.0116Z" fill="black" stroke="black" stroke-width="1.83323"/>
<path d="M421.661 32.6578L416.089 24.4569L411.587 33.663L417.159 41.8639L421.661 32.6578Z" fill="black" stroke="black" stroke-width="1.83323"/>
<path d="M409.971 58.4267L404.399 50.2258L399.897 59.4319L405.469 67.6328L409.971 58.4267Z" fill="black" stroke="black" stroke-width="1.83323"/>
<path d="M397.352 82.8047L392.276 74.1652L388.194 83.85L393.27 92.4895L397.352 82.8047Z" fill="black" stroke="black" stroke-width="1.83323"/>
<path d="M402.164 4.41298L425.078 4.21168L383.672 90.7405L379.009 81.6149L378.582 33.0363L380.319 22.0212L386.654 12.7991L393.022 7.24323L402.164 4.41298Z" fill="black" stroke="black" stroke-width="1.83323"/>
<path d="M441.689 16.8988L465.617 27.6884L465.569 22.189L461.83 13.972L450.75 4.9028L438.811 2.25774L441.689 16.8988Z" fill="black" stroke="black" stroke-width="1.83323"/>
<path d="M445.55 38.8645L466.719 48.7617L466.808 58.8441L447.479 49.8474L445.55 38.8645Z" fill="black" stroke="black" stroke-width="1.83323"/>
<path d="M450.438 73.6543L467.009 81.7585L467.041 85.4249L461.59 90.9726L454.257 91.0371L450.438 73.6543Z" fill="black" stroke="black" stroke-width="1.83323"/>
<path d="M392.847 91.5765L388.199 84.2842L384.573 88.8993L392.847 91.5765Z" fill="black" stroke="black" stroke-width="1.83323"/>
</svg>
